<mxfile host="app.diagrams.net" agent="Mozilla/5.0 (Windows NT 10.0; Win64; x64) AppleWebKit/537.36 (KHTML, like Gecko) Chrome/139.0.0.0 Safari/537.36" version="28.1.1">
  <diagram name="PÃ¡gina-1" id="Tze2PxAu_fKcx7ZtailU">
    <mxGraphModel dx="873" dy="510" grid="0" gridSize="10" guides="1" tooltips="1" connect="1" arrows="1" fold="1" page="1" pageScale="1" pageWidth="980" pageHeight="1390" math="0" shadow="0">
      <root>
        <mxCell id="0" />
        <mxCell id="1" parent="0" />
        <mxCell id="OK-tZQMdaLTncchBPFv1-1" value="Actor" style="shape=umlActor;verticalLabelPosition=bottom;verticalAlign=top;html=1;outlineConnect=0;" vertex="1" parent="1">
          <mxGeometry x="140" y="50" width="30" height="60" as="geometry" />
        </mxCell>
        <mxCell id="OK-tZQMdaLTncchBPFv1-58" style="edgeStyle=orthogonalEdgeStyle;rounded=0;orthogonalLoop=1;jettySize=auto;html=1;exitX=0.5;exitY=1;exitDx=0;exitDy=0;entryX=0.5;entryY=0;entryDx=0;entryDy=0;endArrow=none;endFill=0;dashed=1;dashPattern=1 2;" edge="1" parent="1" source="OK-tZQMdaLTncchBPFv1-2" target="OK-tZQMdaLTncchBPFv1-10">
          <mxGeometry relative="1" as="geometry" />
        </mxCell>
        <mxCell id="OK-tZQMdaLTncchBPFv1-2" value="" style="html=1;whiteSpace=wrap;" vertex="1" parent="1">
          <mxGeometry x="145" y="174" width="15" height="30" as="geometry" />
        </mxCell>
        <mxCell id="OK-tZQMdaLTncchBPFv1-22" style="rounded=0;orthogonalLoop=1;jettySize=auto;html=1;exitX=0.5;exitY=1;exitDx=0;exitDy=0;entryX=0.5;entryY=0;entryDx=0;entryDy=0;dashed=1;dashPattern=1 4;endArrow=none;endFill=0;" edge="1" parent="1" source="OK-tZQMdaLTncchBPFv1-5" target="OK-tZQMdaLTncchBPFv1-14">
          <mxGeometry relative="1" as="geometry" />
        </mxCell>
        <mxCell id="OK-tZQMdaLTncchBPFv1-5" value="Sign UP&amp;nbsp;&lt;div&gt;Register&lt;/div&gt;&lt;div&gt;Webpage&lt;/div&gt;" style="html=1;whiteSpace=wrap;" vertex="1" parent="1">
          <mxGeometry x="372.5" y="55" width="110" height="50" as="geometry" />
        </mxCell>
        <mxCell id="OK-tZQMdaLTncchBPFv1-6" value="" style="endArrow=block;endFill=1;html=1;align=left;verticalAlign=top;rounded=0;exitX=1;exitY=0;exitDx=0;exitDy=0;entryX=0.25;entryY=0;entryDx=0;entryDy=0;" edge="1" parent="1" source="OK-tZQMdaLTncchBPFv1-2" target="OK-tZQMdaLTncchBPFv1-14">
          <mxGeometry x="-1" relative="1" as="geometry">
            <mxPoint x="470" y="254" as="sourcePoint" />
            <mxPoint x="380" y="174" as="targetPoint" />
          </mxGeometry>
        </mxCell>
        <mxCell id="OK-tZQMdaLTncchBPFv1-13" value="Fill the form&amp;nbsp;&lt;div&gt;with your personal information&lt;/div&gt;&lt;div&gt;Name, e-mail, address, phone number&lt;/div&gt;" style="edgeLabel;html=1;align=center;verticalAlign=middle;resizable=0;points=[];" vertex="1" connectable="0" parent="OK-tZQMdaLTncchBPFv1-6">
          <mxGeometry x="-0.1354" y="1" relative="1" as="geometry">
            <mxPoint as="offset" />
          </mxGeometry>
        </mxCell>
        <mxCell id="OK-tZQMdaLTncchBPFv1-60" style="edgeStyle=orthogonalEdgeStyle;rounded=0;orthogonalLoop=1;jettySize=auto;html=1;exitX=0.5;exitY=1;exitDx=0;exitDy=0;entryX=0.5;entryY=0;entryDx=0;entryDy=0;endArrow=none;endFill=0;dashed=1;dashPattern=1 2;" edge="1" parent="1" source="OK-tZQMdaLTncchBPFv1-9" target="OK-tZQMdaLTncchBPFv1-35">
          <mxGeometry relative="1" as="geometry" />
        </mxCell>
        <mxCell id="OK-tZQMdaLTncchBPFv1-9" value="" style="html=1;whiteSpace=wrap;" vertex="1" parent="1">
          <mxGeometry x="145" y="313" width="15" height="30" as="geometry" />
        </mxCell>
        <mxCell id="OK-tZQMdaLTncchBPFv1-59" style="edgeStyle=orthogonalEdgeStyle;rounded=0;orthogonalLoop=1;jettySize=auto;html=1;exitX=0.5;exitY=1;exitDx=0;exitDy=0;entryX=0.5;entryY=0;entryDx=0;entryDy=0;endArrow=none;endFill=0;dashed=1;dashPattern=1 2;" edge="1" parent="1" source="OK-tZQMdaLTncchBPFv1-10" target="OK-tZQMdaLTncchBPFv1-9">
          <mxGeometry relative="1" as="geometry" />
        </mxCell>
        <mxCell id="OK-tZQMdaLTncchBPFv1-10" value="" style="html=1;whiteSpace=wrap;" vertex="1" parent="1">
          <mxGeometry x="145" y="243" width="15" height="30" as="geometry" />
        </mxCell>
        <mxCell id="OK-tZQMdaLTncchBPFv1-14" value="" style="html=1;whiteSpace=wrap;" vertex="1" parent="1">
          <mxGeometry x="420" y="174" width="15" height="30" as="geometry" />
        </mxCell>
        <mxCell id="OK-tZQMdaLTncchBPFv1-52" style="edgeStyle=orthogonalEdgeStyle;rounded=0;orthogonalLoop=1;jettySize=auto;html=1;exitX=0.5;exitY=1;exitDx=0;exitDy=0;entryX=0.5;entryY=0;entryDx=0;entryDy=0;endArrow=none;endFill=0;dashed=1;dashPattern=1 2;" edge="1" parent="1" source="OK-tZQMdaLTncchBPFv1-15" target="OK-tZQMdaLTncchBPFv1-36">
          <mxGeometry relative="1" as="geometry" />
        </mxCell>
        <mxCell id="OK-tZQMdaLTncchBPFv1-15" value="" style="html=1;whiteSpace=wrap;" vertex="1" parent="1">
          <mxGeometry x="420" y="313" width="15" height="30" as="geometry" />
        </mxCell>
        <mxCell id="OK-tZQMdaLTncchBPFv1-51" style="edgeStyle=orthogonalEdgeStyle;rounded=0;orthogonalLoop=1;jettySize=auto;html=1;exitX=0.5;exitY=1;exitDx=0;exitDy=0;entryX=0.5;entryY=0;entryDx=0;entryDy=0;endArrow=none;endFill=0;dashed=1;dashPattern=1 2;" edge="1" parent="1" source="OK-tZQMdaLTncchBPFv1-16" target="OK-tZQMdaLTncchBPFv1-15">
          <mxGeometry relative="1" as="geometry" />
        </mxCell>
        <mxCell id="OK-tZQMdaLTncchBPFv1-57" style="edgeStyle=orthogonalEdgeStyle;rounded=0;orthogonalLoop=1;jettySize=auto;html=1;exitX=0.5;exitY=0;exitDx=0;exitDy=0;entryX=0.5;entryY=1;entryDx=0;entryDy=0;endArrow=none;endFill=0;dashed=1;dashPattern=1 2;" edge="1" parent="1" source="OK-tZQMdaLTncchBPFv1-16" target="OK-tZQMdaLTncchBPFv1-14">
          <mxGeometry relative="1" as="geometry" />
        </mxCell>
        <mxCell id="OK-tZQMdaLTncchBPFv1-16" value="" style="html=1;whiteSpace=wrap;" vertex="1" parent="1">
          <mxGeometry x="420" y="243" width="15" height="30" as="geometry" />
        </mxCell>
        <mxCell id="OK-tZQMdaLTncchBPFv1-54" style="rounded=0;orthogonalLoop=1;jettySize=auto;html=1;exitX=0.5;exitY=1;exitDx=0;exitDy=0;endArrow=none;endFill=0;dashed=1;dashPattern=1 2;" edge="1" parent="1" source="OK-tZQMdaLTncchBPFv1-17" target="OK-tZQMdaLTncchBPFv1-28">
          <mxGeometry relative="1" as="geometry" />
        </mxCell>
        <mxCell id="OK-tZQMdaLTncchBPFv1-17" value="Database&amp;nbsp;" style="html=1;whiteSpace=wrap;" vertex="1" parent="1">
          <mxGeometry x="610" y="55" width="110" height="50" as="geometry" />
        </mxCell>
        <mxCell id="OK-tZQMdaLTncchBPFv1-24" value="" style="endArrow=block;endFill=1;html=1;align=left;verticalAlign=top;rounded=0;exitX=0;exitY=0;exitDx=0;exitDy=0;entryX=1;entryY=0;entryDx=0;entryDy=0;" edge="1" parent="1" source="OK-tZQMdaLTncchBPFv1-16" target="OK-tZQMdaLTncchBPFv1-10">
          <mxGeometry x="-1" relative="1" as="geometry">
            <mxPoint x="160" y="393" as="sourcePoint" />
            <mxPoint x="424" y="393" as="targetPoint" />
          </mxGeometry>
        </mxCell>
        <mxCell id="OK-tZQMdaLTncchBPFv1-25" value="Invalid Fields&lt;br&gt;Show validation errors" style="edgeLabel;html=1;align=center;verticalAlign=middle;resizable=0;points=[];" vertex="1" connectable="0" parent="OK-tZQMdaLTncchBPFv1-24">
          <mxGeometry x="-0.1354" y="1" relative="1" as="geometry">
            <mxPoint as="offset" />
          </mxGeometry>
        </mxCell>
        <mxCell id="OK-tZQMdaLTncchBPFv1-26" value="" style="endArrow=block;endFill=1;html=1;align=left;verticalAlign=top;rounded=0;exitX=1;exitY=0;exitDx=0;exitDy=0;entryX=0;entryY=0;entryDx=0;entryDy=0;" edge="1" parent="1" source="OK-tZQMdaLTncchBPFv1-9" target="OK-tZQMdaLTncchBPFv1-15">
          <mxGeometry x="-1" relative="1" as="geometry">
            <mxPoint x="390" y="213" as="sourcePoint" />
            <mxPoint x="654" y="213" as="targetPoint" />
          </mxGeometry>
        </mxCell>
        <mxCell id="OK-tZQMdaLTncchBPFv1-27" value="All data are valid" style="edgeLabel;html=1;align=center;verticalAlign=middle;resizable=0;points=[];" vertex="1" connectable="0" parent="OK-tZQMdaLTncchBPFv1-26">
          <mxGeometry x="-0.1354" y="1" relative="1" as="geometry">
            <mxPoint as="offset" />
          </mxGeometry>
        </mxCell>
        <mxCell id="OK-tZQMdaLTncchBPFv1-55" style="edgeStyle=orthogonalEdgeStyle;rounded=0;orthogonalLoop=1;jettySize=auto;html=1;exitX=0.5;exitY=1;exitDx=0;exitDy=0;entryX=0.5;entryY=0;entryDx=0;entryDy=0;endArrow=none;endFill=0;dashed=1;dashPattern=1 2;" edge="1" parent="1" source="OK-tZQMdaLTncchBPFv1-28" target="OK-tZQMdaLTncchBPFv1-37">
          <mxGeometry relative="1" as="geometry" />
        </mxCell>
        <mxCell id="OK-tZQMdaLTncchBPFv1-28" value="" style="html=1;whiteSpace=wrap;" vertex="1" parent="1">
          <mxGeometry x="660" y="313" width="15" height="30" as="geometry" />
        </mxCell>
        <mxCell id="OK-tZQMdaLTncchBPFv1-29" value="" style="endArrow=block;endFill=1;html=1;align=left;verticalAlign=top;rounded=0;exitX=1;exitY=0;exitDx=0;exitDy=0;entryX=0;entryY=0;entryDx=0;entryDy=0;" edge="1" parent="1" source="OK-tZQMdaLTncchBPFv1-15" target="OK-tZQMdaLTncchBPFv1-28">
          <mxGeometry x="-1" relative="1" as="geometry">
            <mxPoint x="340" y="303" as="sourcePoint" />
            <mxPoint x="600" y="303" as="targetPoint" />
          </mxGeometry>
        </mxCell>
        <mxCell id="OK-tZQMdaLTncchBPFv1-30" value="Check for the existence of e-mail,&amp;nbsp;&lt;div&gt;phone number&lt;/div&gt;" style="edgeLabel;html=1;align=center;verticalAlign=middle;resizable=0;points=[];" vertex="1" connectable="0" parent="OK-tZQMdaLTncchBPFv1-29">
          <mxGeometry x="-0.1354" y="1" relative="1" as="geometry">
            <mxPoint as="offset" />
          </mxGeometry>
        </mxCell>
        <mxCell id="OK-tZQMdaLTncchBPFv1-31" value="" style="endArrow=block;endFill=1;html=1;align=left;verticalAlign=top;rounded=0;exitX=0;exitY=1;exitDx=0;exitDy=0;entryX=1;entryY=1;entryDx=0;entryDy=0;" edge="1" parent="1" source="OK-tZQMdaLTncchBPFv1-28" target="OK-tZQMdaLTncchBPFv1-15">
          <mxGeometry x="-1" relative="1" as="geometry">
            <mxPoint x="380" y="313" as="sourcePoint" />
            <mxPoint x="640" y="313" as="targetPoint" />
          </mxGeometry>
        </mxCell>
        <mxCell id="OK-tZQMdaLTncchBPFv1-32" value="Already registered" style="edgeLabel;html=1;align=center;verticalAlign=middle;resizable=0;points=[];" vertex="1" connectable="0" parent="OK-tZQMdaLTncchBPFv1-31">
          <mxGeometry x="-0.1354" y="1" relative="1" as="geometry">
            <mxPoint as="offset" />
          </mxGeometry>
        </mxCell>
        <mxCell id="OK-tZQMdaLTncchBPFv1-33" value="" style="endArrow=block;endFill=1;html=1;align=left;verticalAlign=top;rounded=0;exitX=0;exitY=1;exitDx=0;exitDy=0;entryX=1;entryY=1;entryDx=0;entryDy=0;dashed=1;dashPattern=1 2;" edge="1" parent="1" source="OK-tZQMdaLTncchBPFv1-15" target="OK-tZQMdaLTncchBPFv1-9">
          <mxGeometry x="-1" relative="1" as="geometry">
            <mxPoint x="705" y="333" as="sourcePoint" />
            <mxPoint x="480" y="333" as="targetPoint" />
          </mxGeometry>
        </mxCell>
        <mxCell id="OK-tZQMdaLTncchBPFv1-34" value="Show error:&amp;nbsp;&lt;div&gt;&quot;Mobile or e-mail already exists&quot;&amp;nbsp;&lt;/div&gt;" style="edgeLabel;html=1;align=center;verticalAlign=middle;resizable=0;points=[];" vertex="1" connectable="0" parent="OK-tZQMdaLTncchBPFv1-33">
          <mxGeometry x="-0.1354" y="1" relative="1" as="geometry">
            <mxPoint as="offset" />
          </mxGeometry>
        </mxCell>
        <mxCell id="OK-tZQMdaLTncchBPFv1-35" value="" style="html=1;whiteSpace=wrap;" vertex="1" parent="1">
          <mxGeometry x="145" y="456" width="15" height="30" as="geometry" />
        </mxCell>
        <mxCell id="OK-tZQMdaLTncchBPFv1-53" style="edgeStyle=orthogonalEdgeStyle;rounded=0;orthogonalLoop=1;jettySize=auto;html=1;exitX=0.5;exitY=1;exitDx=0;exitDy=0;entryX=0.5;entryY=0;entryDx=0;entryDy=0;endArrow=none;endFill=0;dashed=1;dashPattern=1 2;" edge="1" parent="1" source="OK-tZQMdaLTncchBPFv1-36" target="OK-tZQMdaLTncchBPFv1-46">
          <mxGeometry relative="1" as="geometry" />
        </mxCell>
        <mxCell id="OK-tZQMdaLTncchBPFv1-36" value="" style="html=1;whiteSpace=wrap;" vertex="1" parent="1">
          <mxGeometry x="420" y="384" width="15" height="30" as="geometry" />
        </mxCell>
        <mxCell id="OK-tZQMdaLTncchBPFv1-56" style="edgeStyle=orthogonalEdgeStyle;rounded=0;orthogonalLoop=1;jettySize=auto;html=1;exitX=0.5;exitY=1;exitDx=0;exitDy=0;entryX=0.5;entryY=0;entryDx=0;entryDy=0;endArrow=none;endFill=0;dashed=1;dashPattern=1 2;" edge="1" parent="1" source="OK-tZQMdaLTncchBPFv1-37" target="OK-tZQMdaLTncchBPFv1-42">
          <mxGeometry relative="1" as="geometry" />
        </mxCell>
        <mxCell id="OK-tZQMdaLTncchBPFv1-37" value="" style="html=1;whiteSpace=wrap;" vertex="1" parent="1">
          <mxGeometry x="660" y="384" width="15" height="30" as="geometry" />
        </mxCell>
        <mxCell id="OK-tZQMdaLTncchBPFv1-38" value="" style="endArrow=block;endFill=1;html=1;align=left;verticalAlign=top;rounded=0;exitX=0;exitY=0;exitDx=0;exitDy=0;entryX=1;entryY=0;entryDx=0;entryDy=0;dashed=1;dashPattern=1 2;" edge="1" parent="1" source="OK-tZQMdaLTncchBPFv1-37" target="OK-tZQMdaLTncchBPFv1-36">
          <mxGeometry x="-1" relative="1" as="geometry">
            <mxPoint x="845" y="364" as="sourcePoint" />
            <mxPoint x="620" y="364" as="targetPoint" />
          </mxGeometry>
        </mxCell>
        <mxCell id="OK-tZQMdaLTncchBPFv1-39" value="Not registered" style="edgeLabel;html=1;align=center;verticalAlign=middle;resizable=0;points=[];" vertex="1" connectable="0" parent="OK-tZQMdaLTncchBPFv1-38">
          <mxGeometry x="-0.1354" y="1" relative="1" as="geometry">
            <mxPoint as="offset" />
          </mxGeometry>
        </mxCell>
        <mxCell id="OK-tZQMdaLTncchBPFv1-40" value="" style="endArrow=block;endFill=1;html=1;align=left;verticalAlign=top;rounded=0;exitX=1;exitY=1;exitDx=0;exitDy=0;entryX=0;entryY=1;entryDx=0;entryDy=0;" edge="1" parent="1" source="OK-tZQMdaLTncchBPFv1-36" target="OK-tZQMdaLTncchBPFv1-37">
          <mxGeometry x="-1" relative="1" as="geometry">
            <mxPoint x="733" y="384" as="sourcePoint" />
            <mxPoint x="510" y="384" as="targetPoint" />
          </mxGeometry>
        </mxCell>
        <mxCell id="OK-tZQMdaLTncchBPFv1-41" value="Create new user and&amp;nbsp;&lt;div&gt;save fields&lt;/div&gt;" style="edgeLabel;html=1;align=center;verticalAlign=middle;resizable=0;points=[];" vertex="1" connectable="0" parent="OK-tZQMdaLTncchBPFv1-40">
          <mxGeometry x="-0.1354" y="1" relative="1" as="geometry">
            <mxPoint as="offset" />
          </mxGeometry>
        </mxCell>
        <mxCell id="OK-tZQMdaLTncchBPFv1-42" value="" style="html=1;whiteSpace=wrap;" vertex="1" parent="1">
          <mxGeometry x="660" y="456" width="15" height="30" as="geometry" />
        </mxCell>
        <mxCell id="OK-tZQMdaLTncchBPFv1-44" value="" style="endArrow=block;endFill=1;html=1;align=left;verticalAlign=top;rounded=0;exitX=0;exitY=0;exitDx=0;exitDy=0;entryX=1;entryY=0;entryDx=0;entryDy=0;" edge="1" parent="1" source="OK-tZQMdaLTncchBPFv1-42" target="OK-tZQMdaLTncchBPFv1-46">
          <mxGeometry x="-1" relative="1" as="geometry">
            <mxPoint x="645" y="496" as="sourcePoint" />
            <mxPoint x="440" y="466" as="targetPoint" />
          </mxGeometry>
        </mxCell>
        <mxCell id="OK-tZQMdaLTncchBPFv1-45" value="User Created" style="edgeLabel;html=1;align=center;verticalAlign=middle;resizable=0;points=[];" vertex="1" connectable="0" parent="OK-tZQMdaLTncchBPFv1-44">
          <mxGeometry x="-0.1354" y="1" relative="1" as="geometry">
            <mxPoint as="offset" />
          </mxGeometry>
        </mxCell>
        <mxCell id="OK-tZQMdaLTncchBPFv1-46" value="" style="html=1;whiteSpace=wrap;" vertex="1" parent="1">
          <mxGeometry x="420" y="456" width="15" height="30" as="geometry" />
        </mxCell>
        <mxCell id="OK-tZQMdaLTncchBPFv1-47" value="" style="endArrow=block;endFill=1;html=1;align=left;verticalAlign=top;rounded=0;exitX=0;exitY=1;exitDx=0;exitDy=0;entryX=1;entryY=1;entryDx=0;entryDy=0;" edge="1" parent="1" source="OK-tZQMdaLTncchBPFv1-46" target="OK-tZQMdaLTncchBPFv1-35">
          <mxGeometry x="-1" relative="1" as="geometry">
            <mxPoint x="845" y="456" as="sourcePoint" />
            <mxPoint x="620" y="456" as="targetPoint" />
          </mxGeometry>
        </mxCell>
        <mxCell id="OK-tZQMdaLTncchBPFv1-48" value="Show Sign Up&lt;div&gt;Success&lt;/div&gt;" style="edgeLabel;html=1;align=center;verticalAlign=middle;resizable=0;points=[];" vertex="1" connectable="0" parent="OK-tZQMdaLTncchBPFv1-47">
          <mxGeometry x="-0.1354" y="1" relative="1" as="geometry">
            <mxPoint as="offset" />
          </mxGeometry>
        </mxCell>
        <mxCell id="OK-tZQMdaLTncchBPFv1-61" style="edgeStyle=orthogonalEdgeStyle;rounded=0;orthogonalLoop=1;jettySize=auto;html=1;exitX=0.5;exitY=0;exitDx=0;exitDy=0;endArrow=none;endFill=0;dashed=1;dashPattern=1 2;" edge="1" parent="1" source="OK-tZQMdaLTncchBPFv1-2">
          <mxGeometry relative="1" as="geometry">
            <mxPoint x="152" y="130" as="targetPoint" />
          </mxGeometry>
        </mxCell>
      </root>
    </mxGraphModel>
  </diagram>
</mxfile>
